<?xml version="1.0"?>
<svg xmlns="http://www.w3.org/2000/svg" xmlns:xlink="http://www.w3.org/1999/xlink" version="1.1" id="Capa_1" x="0px" y="0px" viewBox="0 0 477.863 477.863" style="enable-background:new 0 0 477.863 477.863;" xml:space="preserve" width="512px" height="512px" class=""><g transform="matrix(-1 1.22465e-16 -1.22465e-16 -1 477.863 477.863)"><g>
	<g>
		<path d="M472.866,226.864L251,4.997c-6.666-6.664-17.472-6.662-24.136,0.004c-3.199,3.2-4.996,7.538-4.997,12.063v180.668    L29.133,4.997C22.467-1.667,11.661-1.665,4.997,5.001C1.798,8.2,0.001,12.539,0,17.063v443.733    c-0.002,6.902,4.154,13.126,10.53,15.77c2.071,0.863,4.293,1.304,6.537,1.297c4.526-0.001,8.866-1.8,12.066-5l192.734-192.734    v180.668c-0.002,6.902,4.154,13.126,10.53,15.77c2.071,0.863,4.293,1.304,6.536,1.297c4.526-0.001,8.866-1.8,12.066-5    l221.867-221.867C479.529,244.331,479.529,233.528,472.866,226.864z" data-original="#000000" class="active-path" data-old_color="#EFEEEE" fill="#E6E5E5"/>
	</g>
</g></g> </svg>
